<mxfile host="65bd71144e">
    <diagram id="HraTxuLS_xrz_CCDhDff" name="Page-1">
        <mxGraphModel dx="2052" dy="949" grid="1" gridSize="10" guides="1" tooltips="1" connect="1" arrows="1" fold="1" page="0" pageScale="1" pageWidth="827" pageHeight="1169" math="0" shadow="0">
            <root>
                <mxCell id="0"/>
                <mxCell id="1" parent="0"/>
                <mxCell id="596" value="1.infra" style="swimlane;horizontal=0;strokeColor=#001DBC;fillColor=#0050ef;fontColor=#ffffff;swimlaneFillColor=none;" vertex="1" parent="1">
                    <mxGeometry x="40" y="2440" width="1460" height="420" as="geometry">
                        <mxRectangle x="80" y="1440" width="30" height="80" as="alternateBounds"/>
                    </mxGeometry>
                </mxCell>
                <mxCell id="441" value="1.application" style="swimlane;horizontal=0;strokeColor=#6F0000;fillColor=#a20025;fontColor=#ffffff;swimlaneFillColor=none;" vertex="1" parent="1">
                    <mxGeometry x="40" y="1540" width="1460" height="440" as="geometry">
                        <mxRectangle x="40" y="1540" width="30" height="80" as="alternateBounds"/>
                    </mxGeometry>
                </mxCell>
                <mxCell id="509" value="" style="rounded=0;whiteSpace=wrap;html=1;fillColor=none;strokeColor=#808080;" vertex="1" parent="441">
                    <mxGeometry x="679" y="120" width="160" height="80" as="geometry"/>
                </mxCell>
                <mxCell id="492" value="" style="rounded=0;whiteSpace=wrap;html=1;fillColor=none;strokeColor=#808080;" vertex="1" parent="441">
                    <mxGeometry x="99" y="20" width="160" height="80" as="geometry"/>
                </mxCell>
                <mxCell id="493" value="UseCase" style="rounded=0;whiteSpace=wrap;html=1;dashed=1;strokeColor=default;strokeWidth=1;fillColor=#2a2a2a;" vertex="1" parent="441">
                    <mxGeometry x="119" y="40" width="120" height="40" as="geometry"/>
                </mxCell>
                <mxCell id="494" value="&amp;nbsp;base" style="text;html=1;strokeColor=none;fillColor=#6F0000;align=left;verticalAlign=middle;whiteSpace=wrap;rounded=0;fontColor=#FFFFFF;" vertex="1" parent="441">
                    <mxGeometry x="109" y="10" width="40" height="20" as="geometry"/>
                </mxCell>
                <mxCell id="503" value="" style="rounded=0;whiteSpace=wrap;html=1;fillColor=none;strokeColor=#808080;" vertex="1" parent="441">
                    <mxGeometry x="859" y="120" width="160" height="80" as="geometry"/>
                </mxCell>
                <mxCell id="504" value="UserRepository" style="rounded=0;whiteSpace=wrap;html=1;dashed=1;strokeColor=default;strokeWidth=1;fillColor=#2a2a2a;" vertex="1" parent="441">
                    <mxGeometry x="879" y="140" width="120" height="40" as="geometry"/>
                </mxCell>
                <mxCell id="505" value="&amp;nbsp;repositories" style="text;html=1;strokeColor=none;fillColor=#6F0000;align=left;verticalAlign=middle;whiteSpace=wrap;rounded=0;fontColor=#FFFFFF;" vertex="1" parent="441">
                    <mxGeometry x="869" y="110" width="70" height="20" as="geometry"/>
                </mxCell>
                <mxCell id="506" value="" style="rounded=0;whiteSpace=wrap;html=1;" vertex="1" parent="441">
                    <mxGeometry x="709" y="150" width="120" height="40" as="geometry"/>
                </mxCell>
                <mxCell id="515" style="edgeStyle=orthogonalEdgeStyle;html=1;entryX=1;entryY=0.5;entryDx=0;entryDy=0;" edge="1" parent="441" source="507" target="493">
                    <mxGeometry relative="1" as="geometry">
                        <Array as="points">
                            <mxPoint x="649" y="160"/>
                            <mxPoint x="649" y="60"/>
                        </Array>
                    </mxGeometry>
                </mxCell>
                <mxCell id="507" value="CreateUserUseCase" style="rounded=0;whiteSpace=wrap;html=1;" vertex="1" parent="441">
                    <mxGeometry x="699" y="140" width="120" height="40" as="geometry"/>
                </mxCell>
                <mxCell id="508" value="&amp;nbsp;use-cases" style="text;html=1;strokeColor=none;fillColor=#6F0000;align=left;verticalAlign=middle;whiteSpace=wrap;rounded=0;fontColor=#FFFFFF;" vertex="1" parent="441">
                    <mxGeometry x="689" y="110" width="70" height="20" as="geometry"/>
                </mxCell>
                <mxCell id="514" style="edgeStyle=orthogonalEdgeStyle;html=1;exitX=1;exitY=0.5;exitDx=0;exitDy=0;" edge="1" parent="441" source="507" target="504">
                    <mxGeometry relative="1" as="geometry"/>
                </mxCell>
                <mxCell id="565" value="" style="rounded=0;whiteSpace=wrap;html=1;fillColor=none;strokeColor=#808080;" vertex="1" parent="441">
                    <mxGeometry x="1259" y="120" width="160" height="80" as="geometry"/>
                </mxCell>
                <mxCell id="566" value="EmailSender" style="rounded=0;whiteSpace=wrap;html=1;dashed=1;strokeColor=default;strokeWidth=1;fillColor=#2a2a2a;" vertex="1" parent="441">
                    <mxGeometry x="1279" y="140" width="120" height="40" as="geometry"/>
                </mxCell>
                <mxCell id="567" value="&amp;nbsp;e-mail" style="text;html=1;strokeColor=none;fillColor=#6F0000;align=left;verticalAlign=middle;whiteSpace=wrap;rounded=0;fontColor=#FFFFFF;" vertex="1" parent="441">
                    <mxGeometry x="1269" y="110" width="50" height="20" as="geometry"/>
                </mxCell>
                <mxCell id="374" value="0.domain" style="swimlane;horizontal=0;strokeColor=#B09500;fillColor=#E3C800;fontColor=#333300;swimlaneFillColor=none;" parent="1" vertex="1">
                    <mxGeometry x="40" y="800" width="1460" height="720" as="geometry">
                        <mxRectangle x="40" y="800" width="30" height="80" as="alternateBounds"/>
                    </mxGeometry>
                </mxCell>
                <mxCell id="406" value="" style="rounded=0;whiteSpace=wrap;html=1;fillColor=none;strokeColor=#808080;" parent="374" vertex="1">
                    <mxGeometry x="679" y="320" width="160" height="80" as="geometry"/>
                </mxCell>
                <mxCell id="389" value="" style="rounded=0;whiteSpace=wrap;html=1;fillColor=none;strokeColor=#808080;" parent="374" vertex="1">
                    <mxGeometry x="459" y="220" width="160" height="80" as="geometry"/>
                </mxCell>
                <mxCell id="437" value="" style="rounded=0;whiteSpace=wrap;html=1;" parent="374" vertex="1">
                    <mxGeometry x="489" y="250" width="120" height="40" as="geometry"/>
                </mxCell>
                <mxCell id="387" value="" style="rounded=0;whiteSpace=wrap;html=1;fillColor=none;strokeColor=#808080;" parent="374" vertex="1">
                    <mxGeometry x="459" y="120" width="160" height="80" as="geometry"/>
                </mxCell>
                <mxCell id="438" value="" style="rounded=0;whiteSpace=wrap;html=1;" parent="374" vertex="1">
                    <mxGeometry x="489" y="150" width="120" height="40" as="geometry"/>
                </mxCell>
                <mxCell id="436" value="" style="rounded=0;whiteSpace=wrap;html=1;" parent="374" vertex="1">
                    <mxGeometry x="709" y="350" width="120" height="40" as="geometry"/>
                </mxCell>
                <mxCell id="379" value="" style="rounded=0;whiteSpace=wrap;html=1;fillColor=none;strokeColor=#808080;" parent="374" vertex="1">
                    <mxGeometry x="279" y="20" width="160" height="680" as="geometry"/>
                </mxCell>
                <mxCell id="380" value="AggregateRoot" style="rounded=0;whiteSpace=wrap;html=1;strokeColor=default;strokeWidth=1;fillColor=#2a2a2a;dashed=1;" parent="374" vertex="1">
                    <mxGeometry x="299" y="440" width="120" height="40" as="geometry"/>
                </mxCell>
                <mxCell id="520" style="edgeStyle=orthogonalEdgeStyle;html=1;entryX=1;entryY=0.5;entryDx=0;entryDy=0;" edge="1" parent="374" source="381" target="393">
                    <mxGeometry relative="1" as="geometry"/>
                </mxCell>
                <mxCell id="381" value="Entity" style="rounded=0;whiteSpace=wrap;html=1;strokeColor=default;strokeWidth=1;fillColor=#2a2a2a;dashed=1;" parent="374" vertex="1">
                    <mxGeometry x="299" y="540" width="120" height="40" as="geometry"/>
                </mxCell>
                <mxCell id="382" value="ValueObject" style="rounded=0;whiteSpace=wrap;html=1;strokeColor=default;strokeWidth=1;fillColor=#2a2a2a;dashed=1;" parent="374" vertex="1">
                    <mxGeometry x="299" y="340" width="120" height="40" as="geometry"/>
                </mxCell>
                <mxCell id="383" value="Validator" style="rounded=0;whiteSpace=wrap;html=1;dashed=1;strokeColor=default;strokeWidth=1;fillColor=#2a2a2a;" parent="374" vertex="1">
                    <mxGeometry x="299" y="140" width="120" height="40" as="geometry"/>
                </mxCell>
                <mxCell id="384" value="DomainError" style="rounded=0;whiteSpace=wrap;html=1;dashed=1;" parent="374" vertex="1">
                    <mxGeometry x="299" y="240" width="120" height="40" as="geometry"/>
                </mxCell>
                <mxCell id="378" value="&amp;nbsp;base" style="text;html=1;strokeColor=none;fillColor=#666600;align=left;verticalAlign=middle;whiteSpace=wrap;rounded=0;fontColor=#FFFFFF;" parent="374" vertex="1">
                    <mxGeometry x="289" y="10" width="40" height="20" as="geometry"/>
                </mxCell>
                <mxCell id="385" value="&amp;nbsp;validators" style="text;html=1;strokeColor=none;fillColor=#666600;align=left;verticalAlign=middle;whiteSpace=wrap;rounded=0;fontColor=#FFFFFF;" parent="374" vertex="1">
                    <mxGeometry x="469" y="110" width="60" height="20" as="geometry"/>
                </mxCell>
                <mxCell id="388" value="&amp;nbsp;errors" style="text;html=1;strokeColor=none;fillColor=#666600;align=left;verticalAlign=middle;whiteSpace=wrap;rounded=0;fontColor=#FFFFFF;" parent="374" vertex="1">
                    <mxGeometry x="469" y="210" width="40" height="20" as="geometry"/>
                </mxCell>
                <mxCell id="391" style="edgeStyle=orthogonalEdgeStyle;jumpStyle=arc;html=1;exitX=0;exitY=0.5;exitDx=0;exitDy=0;fontColor=#FFFFFF;" parent="374" source="386" target="383" edge="1">
                    <mxGeometry relative="1" as="geometry"/>
                </mxCell>
                <mxCell id="414" style="edgeStyle=orthogonalEdgeStyle;jumpStyle=arc;html=1;exitX=0.5;exitY=1;exitDx=0;exitDy=0;fontColor=#FFFFFF;" parent="374" source="386" target="390" edge="1">
                    <mxGeometry relative="1" as="geometry"/>
                </mxCell>
                <mxCell id="386" value="MinLengthvalidator" style="rounded=0;whiteSpace=wrap;html=1;" parent="374" vertex="1">
                    <mxGeometry x="479" y="140" width="120" height="40" as="geometry"/>
                </mxCell>
                <mxCell id="392" value="" style="edgeStyle=orthogonalEdgeStyle;jumpStyle=arc;html=1;fontColor=#FFFFFF;" parent="374" source="390" target="384" edge="1">
                    <mxGeometry relative="1" as="geometry"/>
                </mxCell>
                <mxCell id="390" value="MinLengthError" style="rounded=0;whiteSpace=wrap;html=1;" parent="374" vertex="1">
                    <mxGeometry x="479" y="240" width="120" height="40" as="geometry"/>
                </mxCell>
                <mxCell id="396" value="" style="rounded=0;whiteSpace=wrap;html=1;fillColor=none;strokeColor=#808080;" parent="374" vertex="1">
                    <mxGeometry x="99" y="20" width="160" height="380" as="geometry"/>
                </mxCell>
                <mxCell id="397" value="&amp;nbsp;utils" style="text;html=1;strokeColor=none;fillColor=#666600;align=left;verticalAlign=middle;whiteSpace=wrap;rounded=0;fontColor=#FFFFFF;" parent="374" vertex="1">
                    <mxGeometry x="109" y="10" width="60" height="20" as="geometry"/>
                </mxCell>
                <mxCell id="398" style="edgeStyle=orthogonalEdgeStyle;jumpStyle=arc;html=1;exitX=0.5;exitY=0;exitDx=0;exitDy=0;fontColor=#FFFFFF;" parent="374" source="393" target="394" edge="1">
                    <mxGeometry relative="1" as="geometry"/>
                </mxCell>
                <mxCell id="393" value="Identifier" style="rounded=0;whiteSpace=wrap;html=1;" parent="374" vertex="1">
                    <mxGeometry x="119" y="340" width="120" height="40" as="geometry"/>
                </mxCell>
                <mxCell id="394" value="Random" style="rounded=0;whiteSpace=wrap;html=1;" parent="374" vertex="1">
                    <mxGeometry x="119" y="240" width="120" height="40" as="geometry"/>
                </mxCell>
                <mxCell id="395" value="Either" style="rounded=0;whiteSpace=wrap;html=1;" parent="374" vertex="1">
                    <mxGeometry x="119" y="40" width="120" height="40" as="geometry"/>
                </mxCell>
                <mxCell id="400" value="" style="rounded=0;whiteSpace=wrap;html=1;fillColor=none;strokeColor=#808080;" parent="374" vertex="1">
                    <mxGeometry x="679" y="420" width="160" height="80" as="geometry"/>
                </mxCell>
                <mxCell id="408" style="edgeStyle=orthogonalEdgeStyle;jumpStyle=arc;html=1;exitX=0;exitY=0.5;exitDx=0;exitDy=0;entryX=1;entryY=0.5;entryDx=0;entryDy=0;fontColor=#FFFFFF;" parent="374" source="401" target="380" edge="1">
                    <mxGeometry relative="1" as="geometry"/>
                </mxCell>
                <mxCell id="410" style="edgeStyle=orthogonalEdgeStyle;jumpStyle=arc;html=1;exitX=0.5;exitY=0;exitDx=0;exitDy=0;entryX=0.5;entryY=1;entryDx=0;entryDy=0;fontColor=#FFFFFF;" parent="374" source="401" target="407" edge="1">
                    <mxGeometry relative="1" as="geometry">
                        <mxPoint x="759" y="380" as="targetPoint"/>
                    </mxGeometry>
                </mxCell>
                <mxCell id="401" value="UserAggregate" style="rounded=0;whiteSpace=wrap;html=1;" parent="374" vertex="1">
                    <mxGeometry x="699" y="440" width="120" height="40" as="geometry"/>
                </mxCell>
                <mxCell id="411" style="edgeStyle=orthogonalEdgeStyle;jumpStyle=arc;html=1;exitX=0;exitY=0.5;exitDx=0;exitDy=0;entryX=1;entryY=0.5;entryDx=0;entryDy=0;fontColor=#FFFFFF;" parent="374" source="407" target="382" edge="1">
                    <mxGeometry relative="1" as="geometry"/>
                </mxCell>
                <mxCell id="413" style="edgeStyle=orthogonalEdgeStyle;jumpStyle=arc;html=1;exitX=0;exitY=0.5;exitDx=0;exitDy=0;entryX=1;entryY=0.5;entryDx=0;entryDy=0;fontColor=#FFFFFF;" parent="374" source="407" target="390" edge="1">
                    <mxGeometry relative="1" as="geometry">
                        <Array as="points">
                            <mxPoint x="649" y="360"/>
                            <mxPoint x="649" y="260"/>
                        </Array>
                    </mxGeometry>
                </mxCell>
                <mxCell id="399" value="&amp;nbsp;aggregates" style="text;html=1;strokeColor=none;fillColor=#666600;align=left;verticalAlign=middle;whiteSpace=wrap;rounded=0;fontColor=#FFFFFF;" parent="374" vertex="1">
                    <mxGeometry x="689" y="410" width="70" height="20" as="geometry"/>
                </mxCell>
                <mxCell id="405" value="&amp;nbsp;value-objects" style="text;html=1;strokeColor=none;fillColor=#666600;align=left;verticalAlign=middle;whiteSpace=wrap;rounded=0;fontColor=#FFFFFF;" parent="374" vertex="1">
                    <mxGeometry x="689" y="310" width="80" height="20" as="geometry"/>
                </mxCell>
                <mxCell id="415" value="Var" style="rounded=0;whiteSpace=wrap;html=1;" parent="374" vertex="1">
                    <mxGeometry x="119" y="140" width="120" height="40" as="geometry"/>
                </mxCell>
                <mxCell id="417" value="" style="rounded=0;whiteSpace=wrap;html=1;fillColor=none;strokeColor=#808080;" parent="374" vertex="1">
                    <mxGeometry x="99" y="420" width="160" height="80" as="geometry"/>
                </mxCell>
                <mxCell id="418" value="&amp;nbsp;types" style="text;html=1;strokeColor=none;fillColor=#666600;align=left;verticalAlign=middle;whiteSpace=wrap;rounded=0;fontColor=#FFFFFF;" parent="374" vertex="1">
                    <mxGeometry x="109" y="410" width="60" height="20" as="geometry"/>
                </mxCell>
                <mxCell id="419" value="IntegerGreater-ThanZero" style="rounded=0;whiteSpace=wrap;html=1;" parent="374" vertex="1">
                    <mxGeometry x="119" y="440" width="120" height="40" as="geometry"/>
                </mxCell>
                <mxCell id="425" value="" style="rounded=0;whiteSpace=wrap;html=1;fillColor=none;strokeColor=#808080;" parent="374" vertex="1">
                    <mxGeometry x="99" y="520" width="160" height="80" as="geometry"/>
                </mxCell>
                <mxCell id="424" value="&amp;nbsp;events" style="text;html=1;strokeColor=none;fillColor=#666600;align=left;verticalAlign=middle;whiteSpace=wrap;rounded=0;fontColor=#FFFFFF;" parent="374" vertex="1">
                    <mxGeometry x="109" y="510" width="60" height="20" as="geometry"/>
                </mxCell>
                <mxCell id="426" value="DomainEvents" style="rounded=0;whiteSpace=wrap;html=1;" parent="374" vertex="1">
                    <mxGeometry x="119" y="540" width="120" height="40" as="geometry"/>
                </mxCell>
                <mxCell id="429" value="" style="rounded=0;whiteSpace=wrap;html=1;fillColor=none;strokeColor=#808080;" parent="374" vertex="1">
                    <mxGeometry x="679" y="20" width="160" height="80" as="geometry"/>
                </mxCell>
                <mxCell id="435" style="edgeStyle=orthogonalEdgeStyle;html=1;exitX=0;exitY=0.5;exitDx=0;exitDy=0;entryX=1;entryY=0.5;entryDx=0;entryDy=0;" parent="374" source="428" target="432" edge="1">
                    <mxGeometry relative="1" as="geometry"/>
                </mxCell>
                <mxCell id="428" value="UserCreatedEvent" style="rounded=0;whiteSpace=wrap;html=1;" parent="374" vertex="1">
                    <mxGeometry x="699" y="40" width="120" height="40" as="geometry"/>
                </mxCell>
                <mxCell id="427" value="&amp;nbsp;events" style="text;html=1;strokeColor=none;fillColor=#666600;align=left;verticalAlign=middle;whiteSpace=wrap;rounded=0;fontColor=#FFFFFF;" parent="374" vertex="1">
                    <mxGeometry x="689" y="10" width="70" height="20" as="geometry"/>
                </mxCell>
                <mxCell id="432" value="DomainEvent" style="rounded=0;whiteSpace=wrap;html=1;strokeColor=default;strokeWidth=1;fillColor=#2a2a2a;dashed=1;" parent="374" vertex="1">
                    <mxGeometry x="299" y="40" width="120" height="40" as="geometry"/>
                </mxCell>
                <mxCell id="407" value="Name" style="rounded=0;whiteSpace=wrap;html=1;" parent="374" vertex="1">
                    <mxGeometry x="699" y="340" width="120" height="40" as="geometry"/>
                </mxCell>
                <mxCell id="439" value="Handler" style="rounded=0;whiteSpace=wrap;html=1;strokeColor=default;strokeWidth=1;fillColor=#2a2a2a;dashed=1;" vertex="1" parent="374">
                    <mxGeometry x="299" y="640" width="120" height="40" as="geometry"/>
                </mxCell>
                <mxCell id="524" style="edgeStyle=orthogonalEdgeStyle;html=1;entryX=1;entryY=0.5;entryDx=0;entryDy=0;jumpStyle=arc;jumpSize=12;" edge="1" parent="374" source="523" target="381">
                    <mxGeometry relative="1" as="geometry"/>
                </mxCell>
                <mxCell id="525" value="" style="rounded=0;whiteSpace=wrap;html=1;fillColor=none;strokeColor=#808080;" vertex="1" parent="374">
                    <mxGeometry x="1079" y="320" width="160" height="80" as="geometry"/>
                </mxCell>
                <mxCell id="526" value="" style="rounded=0;whiteSpace=wrap;html=1;" vertex="1" parent="374">
                    <mxGeometry x="1109" y="350" width="120" height="40" as="geometry"/>
                </mxCell>
                <mxCell id="522" value="" style="rounded=0;whiteSpace=wrap;html=1;fillColor=none;strokeColor=#808080;" vertex="1" parent="374">
                    <mxGeometry x="1079" y="520" width="160" height="80" as="geometry"/>
                </mxCell>
                <mxCell id="521" value="&amp;nbsp;entities" style="text;html=1;strokeColor=none;fillColor=#666600;align=left;verticalAlign=middle;whiteSpace=wrap;rounded=0;fontColor=#FFFFFF;" vertex="1" parent="374">
                    <mxGeometry x="1089" y="510" width="50" height="20" as="geometry"/>
                </mxCell>
                <mxCell id="529" style="edgeStyle=orthogonalEdgeStyle;jumpStyle=arc;jumpSize=12;html=1;exitX=0.5;exitY=0;exitDx=0;exitDy=0;entryX=0.5;entryY=1;entryDx=0;entryDy=0;" edge="1" parent="374" source="523" target="528">
                    <mxGeometry relative="1" as="geometry"/>
                </mxCell>
                <mxCell id="523" value="EmailEntity" style="rounded=0;whiteSpace=wrap;html=1;" vertex="1" parent="374">
                    <mxGeometry x="1099" y="540" width="120" height="40" as="geometry"/>
                </mxCell>
                <mxCell id="527" value="&amp;nbsp;value-objects" style="text;html=1;strokeColor=none;fillColor=#666600;align=left;verticalAlign=middle;whiteSpace=wrap;rounded=0;fontColor=#FFFFFF;" vertex="1" parent="374">
                    <mxGeometry x="1089" y="310" width="80" height="20" as="geometry"/>
                </mxCell>
                <mxCell id="528" value="From" style="rounded=0;whiteSpace=wrap;html=1;" vertex="1" parent="374">
                    <mxGeometry x="1099" y="340" width="120" height="40" as="geometry"/>
                </mxCell>
                <mxCell id="517" style="edgeStyle=orthogonalEdgeStyle;html=1;exitX=0.5;exitY=0;exitDx=0;exitDy=0;entryX=0.5;entryY=1;entryDx=0;entryDy=0;" edge="1" parent="1" source="507" target="401">
                    <mxGeometry relative="1" as="geometry"/>
                </mxCell>
                <mxCell id="541" value="2.presentation" style="swimlane;horizontal=0;strokeColor=#005700;fillColor=#008a00;fontColor=#ffffff;swimlaneFillColor=none;" vertex="1" parent="1">
                    <mxGeometry x="40" y="2000" width="1460" height="420" as="geometry">
                        <mxRectangle x="80" y="1440" width="30" height="80" as="alternateBounds"/>
                    </mxGeometry>
                </mxCell>
                <mxCell id="577" value="" style="rounded=0;whiteSpace=wrap;html=1;fillColor=none;strokeColor=#808080;" vertex="1" parent="541">
                    <mxGeometry x="99" y="20" width="160" height="80" as="geometry"/>
                </mxCell>
                <mxCell id="578" value="Controller" style="rounded=0;whiteSpace=wrap;html=1;dashed=1;strokeColor=default;strokeWidth=1;fillColor=#2a2a2a;" vertex="1" parent="541">
                    <mxGeometry x="119" y="40" width="120" height="40" as="geometry"/>
                </mxCell>
                <mxCell id="576" value="&amp;nbsp;base" style="text;html=1;strokeColor=none;fillColor=#005700;align=left;verticalAlign=middle;whiteSpace=wrap;rounded=0;fontColor=#FFFFFF;" vertex="1" parent="541">
                    <mxGeometry x="109" y="10" width="40" height="20" as="geometry"/>
                </mxCell>
                <mxCell id="580" value="" style="rounded=0;whiteSpace=wrap;html=1;fillColor=none;strokeColor=#808080;" vertex="1" parent="541">
                    <mxGeometry x="99" y="220" width="160" height="80" as="geometry"/>
                </mxCell>
                <mxCell id="581" value="ServerError" style="rounded=0;whiteSpace=wrap;html=1;" vertex="1" parent="541">
                    <mxGeometry x="119" y="240" width="120" height="40" as="geometry"/>
                </mxCell>
                <mxCell id="579" value="&amp;nbsp;errors" style="text;html=1;strokeColor=none;fillColor=#005700;align=left;verticalAlign=middle;whiteSpace=wrap;rounded=0;fontColor=#FFFFFF;" vertex="1" parent="541">
                    <mxGeometry x="109" y="210" width="40" height="20" as="geometry"/>
                </mxCell>
                <mxCell id="582" value="" style="rounded=0;whiteSpace=wrap;html=1;fillColor=none;strokeColor=#808080;" vertex="1" parent="541">
                    <mxGeometry x="99" y="120" width="160" height="80" as="geometry"/>
                </mxCell>
                <mxCell id="585" value="" style="rounded=0;whiteSpace=wrap;html=1;" vertex="1" parent="541">
                    <mxGeometry x="129" y="150" width="120" height="40" as="geometry"/>
                </mxCell>
                <mxCell id="583" value="ClientErrorFactory" style="rounded=0;whiteSpace=wrap;html=1;" vertex="1" parent="541">
                    <mxGeometry x="119" y="140" width="120" height="40" as="geometry"/>
                </mxCell>
                <mxCell id="584" value="&amp;nbsp;factories" style="text;html=1;strokeColor=none;fillColor=#005700;align=left;verticalAlign=middle;whiteSpace=wrap;rounded=0;fontColor=#FFFFFF;" vertex="1" parent="541">
                    <mxGeometry x="109" y="110" width="60" height="20" as="geometry"/>
                </mxCell>
                <mxCell id="586" value="" style="rounded=0;whiteSpace=wrap;html=1;fillColor=none;strokeColor=#808080;" vertex="1" parent="541">
                    <mxGeometry x="99" y="320" width="160" height="80" as="geometry"/>
                </mxCell>
                <mxCell id="587" value="Middleware" style="rounded=0;whiteSpace=wrap;html=1;dashed=1;strokeColor=default;strokeWidth=1;fillColor=#2a2a2a;" vertex="1" parent="541">
                    <mxGeometry x="119" y="340" width="120" height="40" as="geometry"/>
                </mxCell>
                <mxCell id="588" value="&amp;nbsp;middleware" style="text;html=1;strokeColor=none;fillColor=#005700;align=left;verticalAlign=middle;whiteSpace=wrap;rounded=0;fontColor=#FFFFFF;" vertex="1" parent="541">
                    <mxGeometry x="109" y="310" width="70" height="20" as="geometry"/>
                </mxCell>
                <mxCell id="589" value="" style="rounded=0;whiteSpace=wrap;html=1;fillColor=none;strokeColor=#808080;" vertex="1" parent="541">
                    <mxGeometry x="679" y="20" width="160" height="80" as="geometry"/>
                </mxCell>
                <mxCell id="593" style="edgeStyle=orthogonalEdgeStyle;jumpStyle=arc;jumpSize=12;html=1;entryX=1;entryY=0.5;entryDx=0;entryDy=0;" edge="1" parent="541" source="590" target="583">
                    <mxGeometry relative="1" as="geometry">
                        <Array as="points">
                            <mxPoint x="649" y="60"/>
                            <mxPoint x="649" y="160"/>
                        </Array>
                    </mxGeometry>
                </mxCell>
                <mxCell id="594" style="edgeStyle=orthogonalEdgeStyle;jumpStyle=arc;jumpSize=12;html=1;exitX=0;exitY=0.5;exitDx=0;exitDy=0;entryX=1;entryY=0.5;entryDx=0;entryDy=0;" edge="1" parent="541" source="590" target="578">
                    <mxGeometry relative="1" as="geometry"/>
                </mxCell>
                <mxCell id="595" style="edgeStyle=orthogonalEdgeStyle;jumpStyle=arc;jumpSize=12;html=1;entryX=1;entryY=0.5;entryDx=0;entryDy=0;" edge="1" parent="541" source="590" target="581">
                    <mxGeometry relative="1" as="geometry">
                        <Array as="points">
                            <mxPoint x="649" y="60"/>
                            <mxPoint x="649" y="260"/>
                        </Array>
                    </mxGeometry>
                </mxCell>
                <mxCell id="590" value="SignUpController" style="rounded=0;whiteSpace=wrap;html=1;" vertex="1" parent="541">
                    <mxGeometry x="699" y="40" width="120" height="40" as="geometry"/>
                </mxCell>
                <mxCell id="591" value="&amp;nbsp;controllers" style="text;html=1;strokeColor=none;fillColor=#005700;align=left;verticalAlign=middle;whiteSpace=wrap;rounded=0;fontColor=#FFFFFF;" vertex="1" parent="541">
                    <mxGeometry x="689" y="10" width="70" height="20" as="geometry"/>
                </mxCell>
                <mxCell id="592" style="edgeStyle=orthogonalEdgeStyle;jumpStyle=arc;jumpSize=12;html=1;exitX=0.5;exitY=0;exitDx=0;exitDy=0;entryX=0.5;entryY=1;entryDx=0;entryDy=0;" edge="1" parent="1" source="590" target="507">
                    <mxGeometry relative="1" as="geometry"/>
                </mxCell>
                <mxCell id="572" style="edgeStyle=orthogonalEdgeStyle;jumpStyle=arc;jumpSize=12;html=1;exitX=1;exitY=0.5;exitDx=0;exitDy=0;" edge="1" parent="1" source="573" target="566">
                    <mxGeometry relative="1" as="geometry"/>
                </mxCell>
                <mxCell id="377" value="User module" style="swimlane;fontColor=#FFFFFF;strokeColor=#FFCCE6;fillColor=default;dashed=1;" parent="1" vertex="1">
                    <mxGeometry x="699" y="760" width="380" height="2320" as="geometry">
                        <mxRectangle x="700" y="1400" width="100" height="23" as="alternateBounds"/>
                    </mxGeometry>
                </mxCell>
                <mxCell id="376" value="Core" style="swimlane;fontColor=#FFFFFF;strokeColor=#FFCCE6;fillColor=default;dashed=1;" parent="1" vertex="1">
                    <mxGeometry x="119" y="760" width="560" height="2320" as="geometry">
                        <mxRectangle x="120" y="1400" width="60" height="23" as="alternateBounds"/>
                    </mxGeometry>
                </mxCell>
                <mxCell id="619" value="" style="rounded=0;whiteSpace=wrap;html=1;fillColor=none;strokeColor=#808080;" vertex="1" parent="376">
                    <mxGeometry x="20" y="1700" width="160" height="140" as="geometry"/>
                </mxCell>
                <mxCell id="618" value="ArgonAdapter" style="rounded=0;whiteSpace=wrap;html=1;" vertex="1" parent="376">
                    <mxGeometry x="40" y="1720" width="120" height="40" as="geometry"/>
                </mxCell>
                <mxCell id="617" value="&amp;nbsp;cryptography" style="text;html=1;strokeColor=none;fillColor=#001DBC;align=left;verticalAlign=middle;whiteSpace=wrap;rounded=0;fontColor=#FFFFFF;" vertex="1" parent="376">
                    <mxGeometry x="30" y="1690" width="80" height="20" as="geometry"/>
                </mxCell>
                <mxCell id="643" style="edgeStyle=orthogonalEdgeStyle;jumpStyle=arc;jumpSize=12;html=1;entryX=0;entryY=0.5;entryDx=0;entryDy=0;" edge="1" parent="376" source="621" target="497">
                    <mxGeometry relative="1" as="geometry">
                        <Array as="points">
                            <mxPoint x="-19" y="1800"/>
                            <mxPoint x="-19" y="1040"/>
                        </Array>
                    </mxGeometry>
                </mxCell>
                <mxCell id="621" value="Jsonwebtoken-Adapter" style="rounded=0;whiteSpace=wrap;html=1;" vertex="1" parent="376">
                    <mxGeometry x="40" y="1780" width="120" height="40" as="geometry"/>
                </mxCell>
                <mxCell id="496" value="" style="rounded=0;whiteSpace=wrap;html=1;fillColor=none;strokeColor=#808080;" vertex="1" parent="376">
                    <mxGeometry x="20" y="1000" width="160" height="180" as="geometry"/>
                </mxCell>
                <mxCell id="497" value="Encrypter" style="rounded=0;whiteSpace=wrap;html=1;dashed=1;strokeColor=default;strokeWidth=1;fillColor=#2a2a2a;" vertex="1" parent="376">
                    <mxGeometry x="40" y="1020" width="120" height="40" as="geometry"/>
                </mxCell>
                <mxCell id="495" value="&amp;nbsp;cryptography" style="text;html=1;strokeColor=none;fillColor=#6F0000;align=left;verticalAlign=middle;whiteSpace=wrap;rounded=0;fontColor=#FFFFFF;" vertex="1" parent="376">
                    <mxGeometry x="30" y="990" width="80" height="20" as="geometry"/>
                </mxCell>
                <mxCell id="498" value="Hasher" style="rounded=0;whiteSpace=wrap;html=1;dashed=1;strokeColor=default;strokeWidth=1;fillColor=#2a2a2a;" vertex="1" parent="376">
                    <mxGeometry x="40" y="1120" width="120" height="40" as="geometry"/>
                </mxCell>
                <mxCell id="620" style="edgeStyle=orthogonalEdgeStyle;jumpStyle=arc;jumpSize=12;html=1;exitX=0;exitY=0.5;exitDx=0;exitDy=0;entryX=0;entryY=0.5;entryDx=0;entryDy=0;" edge="1" parent="376" source="618" target="498">
                    <mxGeometry relative="1" as="geometry">
                        <Array as="points">
                            <mxPoint x="-9" y="1740"/>
                            <mxPoint x="-9" y="1140"/>
                        </Array>
                    </mxGeometry>
                </mxCell>
                <mxCell id="499" value="" style="rounded=0;whiteSpace=wrap;html=1;fillColor=none;strokeColor=#808080;" vertex="1" parent="376">
                    <mxGeometry x="20" y="900" width="160" height="80" as="geometry"/>
                </mxCell>
                <mxCell id="500" value="" style="rounded=0;whiteSpace=wrap;html=1;" vertex="1" parent="376">
                    <mxGeometry x="50" y="930" width="120" height="40" as="geometry"/>
                </mxCell>
                <mxCell id="501" value="&amp;nbsp;errors" style="text;html=1;strokeColor=none;fillColor=#6F0000;align=left;verticalAlign=middle;whiteSpace=wrap;rounded=0;fontColor=#FFFFFF;" vertex="1" parent="376">
                    <mxGeometry x="30" y="890" width="40" height="20" as="geometry"/>
                </mxCell>
                <mxCell id="502" value="EmailTakenError" style="rounded=0;whiteSpace=wrap;html=1;" vertex="1" parent="376">
                    <mxGeometry x="40" y="920" width="120" height="40" as="geometry"/>
                </mxCell>
                <mxCell id="616" value="Communication mocdule" style="swimlane;fontColor=#FFFFFF;strokeColor=#FFCCE6;fillColor=default;dashed=1;" vertex="1" parent="1">
                    <mxGeometry x="1100" y="760" width="380" height="2320" as="geometry">
                        <mxRectangle x="700" y="1400" width="100" height="23" as="alternateBounds"/>
                    </mxGeometry>
                </mxCell>
                <mxCell id="568" value="" style="rounded=0;whiteSpace=wrap;html=1;fillColor=none;strokeColor=#808080;" vertex="1" parent="616">
                    <mxGeometry x="20" y="800" width="160" height="80" as="geometry"/>
                </mxCell>
                <mxCell id="569" value="UserCreatedHandler" style="rounded=0;whiteSpace=wrap;html=1;strokeColor=default;strokeWidth=1;fillColor=#2a2a2a;" vertex="1" parent="616">
                    <mxGeometry x="40" y="820" width="120" height="40" as="geometry"/>
                </mxCell>
                <mxCell id="570" value="&amp;nbsp;handlers" style="text;html=1;strokeColor=none;fillColor=#6F0000;align=left;verticalAlign=middle;whiteSpace=wrap;rounded=0;fontColor=#FFFFFF;" vertex="1" parent="616">
                    <mxGeometry x="30" y="790" width="60" height="20" as="geometry"/>
                </mxCell>
                <mxCell id="571" value="" style="rounded=0;whiteSpace=wrap;html=1;fillColor=none;strokeColor=#808080;" vertex="1" parent="616">
                    <mxGeometry x="20" y="900" width="160" height="80" as="geometry"/>
                </mxCell>
                <mxCell id="573" value="SendEmailValidation-EmailUseCase" style="rounded=0;whiteSpace=wrap;html=1;" vertex="1" parent="616">
                    <mxGeometry x="40" y="920" width="120" height="40" as="geometry"/>
                </mxCell>
                <mxCell id="574" value="&amp;nbsp;use-cases" style="text;html=1;strokeColor=none;fillColor=#6F0000;align=left;verticalAlign=middle;whiteSpace=wrap;rounded=0;fontColor=#FFFFFF;" vertex="1" parent="616">
                    <mxGeometry x="30" y="890" width="70" height="20" as="geometry"/>
                </mxCell>
                <mxCell id="575" style="edgeStyle=orthogonalEdgeStyle;jumpStyle=arc;jumpSize=12;html=1;exitX=0;exitY=0.5;exitDx=0;exitDy=0;entryX=1;entryY=0.5;entryDx=0;entryDy=0;" edge="1" parent="1" source="569" target="439">
                    <mxGeometry relative="1" as="geometry">
                        <Array as="points">
                            <mxPoint x="1089" y="1600"/>
                            <mxPoint x="1089" y="1460"/>
                        </Array>
                    </mxGeometry>
                </mxCell>
                <mxCell id="511" style="edgeStyle=orthogonalEdgeStyle;html=1;exitX=0;exitY=0.5;exitDx=0;exitDy=0;entryX=1;entryY=0.5;entryDx=0;entryDy=0;" edge="1" parent="1" source="507" target="497">
                    <mxGeometry relative="1" as="geometry">
                        <Array as="points">
                            <mxPoint x="689" y="1700"/>
                            <mxPoint x="689" y="1800"/>
                        </Array>
                    </mxGeometry>
                </mxCell>
                <mxCell id="512" style="edgeStyle=orthogonalEdgeStyle;html=1;exitX=0;exitY=0.5;exitDx=0;exitDy=0;entryX=1;entryY=0.5;entryDx=0;entryDy=0;" edge="1" parent="1" source="507" target="498">
                    <mxGeometry relative="1" as="geometry">
                        <Array as="points">
                            <mxPoint x="689" y="1700"/>
                            <mxPoint x="689" y="1900"/>
                        </Array>
                    </mxGeometry>
                </mxCell>
                <mxCell id="513" style="edgeStyle=orthogonalEdgeStyle;html=1;entryX=1;entryY=0.5;entryDx=0;entryDy=0;" edge="1" parent="1" source="507" target="502">
                    <mxGeometry relative="1" as="geometry">
                        <Array as="points">
                            <mxPoint x="499" y="1700"/>
                            <mxPoint x="499" y="1700"/>
                        </Array>
                    </mxGeometry>
                </mxCell>
            </root>
        </mxGraphModel>
    </diagram>
</mxfile>